<svg width="21" height="21" viewBox="0 0 21 21" fill="none" xmlns="http://www.w3.org/2000/svg">
<path d="M11.2854 1.76421V1.25171C11.2854 0.920188 11.1533 0.602246 10.9181 0.367825C10.683 0.133405 10.364 0.00170898 10.0315 0.00170898C9.6989 0.00170898 9.37995 0.133405 9.1448 0.367825C8.90964 0.602246 8.77753 0.920188 8.77753 1.25171V1.76421C7.18282 1.97887 5.67286 2.60812 4.39938 3.58876C3.1259 4.5694 2.13375 5.86687 1.52262 7.35081C0.911479 8.83476 0.702885 10.4529 0.917793 12.0427C1.1327 13.6324 1.76354 15.1378 2.74692 16.4075C2.4008 16.6911 2.12408 17.0497 1.9378 17.4558C1.75151 17.862 1.66057 18.3052 1.67188 18.7517C1.67188 19.0832 1.80399 19.4012 2.03915 19.6356C2.27431 19.87 2.59325 20.0017 2.92582 20.0017C3.25838 20.0017 3.57733 19.87 3.81249 19.6356C4.04765 19.4012 4.17976 19.0832 4.17976 18.7517C4.16698 18.6279 4.198 18.5035 4.26745 18.4C4.33689 18.2965 4.44041 18.2205 4.56012 18.185C6.13881 19.3635 8.05798 20.0004 10.0302 20.0004C12.0024 20.0004 13.9216 19.3635 15.5003 18.185C15.6205 18.22 15.7246 18.2959 15.7945 18.3994C15.8644 18.5029 15.8958 18.6275 15.8832 18.7517C15.8832 19.0832 16.0153 19.4012 16.2504 19.6356C16.4856 19.87 16.8045 20.0017 17.1371 20.0017C17.4697 20.0017 17.7886 19.87 18.0238 19.6356C18.2589 19.4012 18.391 19.0832 18.391 18.7517C18.4024 18.3052 18.3114 17.862 18.1251 17.4558C17.9388 17.0497 17.6621 16.6911 17.316 16.4075C18.2994 15.1378 18.9302 13.6324 19.1451 12.0427C19.36 10.4529 19.1514 8.83476 18.5403 7.35081C17.9292 5.86687 16.937 4.5694 15.6635 3.58876C14.3901 2.60812 12.8801 1.97887 11.2854 1.76421ZM3.3438 10.835C3.3438 9.5165 3.73602 8.22757 4.47087 7.13124C5.20572 6.03491 6.25019 5.18043 7.4722 4.67585C8.69422 4.17126 10.0389 4.03924 11.3362 4.29647C12.6334 4.55371 13.8251 5.18865 14.7604 6.121C15.6956 7.05335 16.3326 8.24123 16.5906 9.53444C16.8487 10.8276 16.7162 12.1681 16.2101 13.3863C15.7039 14.6044 14.8467 15.6456 13.7469 16.3782C12.6471 17.1107 11.3542 17.5017 10.0315 17.5017C8.25839 17.4997 6.55852 16.7967 5.30477 15.5469C4.05102 14.2971 3.34579 12.6025 3.3438 10.835Z" fill="#FFA500"/>
<path d="M16.3011 0.001608C15.9685 0.001608 15.6496 0.133304 15.4144 0.367725C15.1793 0.602145 15.0471 0.920088 15.0471 1.25161C15.0471 1.58313 15.1793 1.90107 15.4144 2.13549C15.6496 2.36991 15.9685 2.50161 16.3011 2.50161C16.4675 2.4887 16.6348 2.51247 16.791 2.57122C16.9472 2.62997 17.0885 2.72227 17.2049 2.84157C17.3213 2.96087 17.4099 3.10424 17.4645 3.26151C17.5191 3.41879 17.5383 3.58611 17.5207 3.75161C17.5207 4.08313 17.6529 4.40107 17.888 4.63549C18.1232 4.86991 18.4421 5.00161 18.7747 5.00161C19.1072 5.00161 19.4262 4.86991 19.6613 4.63549C19.8965 4.40107 20.0286 4.08313 20.0286 3.75161C20.048 3.25688 19.9651 2.76347 19.7851 2.30203C19.605 1.84059 19.3317 1.42099 18.9821 1.0693C18.6326 0.717609 18.2142 0.441343 17.7529 0.257668C17.2917 0.0739929 16.7975 -0.0131657 16.3011 0.001608Z" fill="#FFA500"/>
<path d="M2.542 3.75161C2.52445 3.58611 2.54365 3.41879 2.59823 3.26151C2.65282 3.10424 2.74146 2.96087 2.85786 2.84157C2.97426 2.72227 3.11558 2.62997 3.27177 2.57122C3.42797 2.51247 3.59522 2.4887 3.76166 2.50161C4.09423 2.50161 4.41317 2.36991 4.64833 2.13549C4.88349 1.90107 5.0156 1.58313 5.0156 1.25161C5.0156 0.920088 4.88349 0.602145 4.64833 0.367725C4.41317 0.133304 4.09423 0.001608 3.76166 0.001608C3.26522 -0.0131657 2.77103 0.0739929 2.30981 0.257668C1.84859 0.441343 1.43018 0.717609 1.0806 1.0693C0.731013 1.42099 0.457718 1.84059 0.277693 2.30203C0.0976691 2.76347 0.0147627 3.25688 0.0341261 3.75161C0.0341261 4.08313 0.166237 4.40107 0.401396 4.63549C0.636555 4.86991 0.955499 5.00161 1.28806 5.00161C1.62063 5.00161 1.93957 4.86991 2.17473 4.63549C2.40989 4.40107 2.542 4.08313 2.542 3.75161Z" fill="#FFA500"/>
<path d="M11.3104 10.3175V7.08496C11.3104 6.75344 11.1783 6.4355 10.9432 6.20108C10.708 5.96666 10.3891 5.83496 10.0565 5.83496C9.72394 5.83496 9.40499 5.96666 9.16984 6.20108C8.93468 6.4355 8.80257 6.75344 8.80257 7.08496V10.6625C8.80266 11.1044 8.97887 11.5283 9.29244 11.8408L10.7913 13.3349C11.0278 13.5626 11.3445 13.6886 11.6733 13.6858C12.0021 13.6829 12.3166 13.5515 12.5491 13.3197C12.7816 13.088 12.9135 12.7744 12.9163 12.4467C12.9192 12.119 12.7928 11.8032 12.5644 11.5675L11.3104 10.3175Z" fill="#FFA500"/>
</svg>
