<svg width="20" height="20" viewBox="0 0 20 20" fill="none" xmlns="http://www.w3.org/2000/svg">
<path d="M16.4995 3.68837C15.5225 2.36502 14.2043 1.33177 12.6856 0.698973C11.1669 0.0661764 9.50474 -0.142406 7.87669 0.0954992C6.29317 0.320543 4.79611 0.955822 3.53424 1.93823C2.27236 2.92064 1.28959 4.21598 0.683546 5.69557C0.0775044 7.17516 -0.130711 8.78751 0.0795833 10.3724C0.289878 11.9574 0.911363 13.4597 1.8823 14.7302C2.2957 15.2998 2.51219 15.9885 2.49899 16.692V17.5009C2.49899 18.1637 2.76239 18.7994 3.23125 19.268C3.70011 19.7367 4.33602 20 4.99908 20H10.8326C11.4957 20 12.1316 19.7367 12.6005 19.268C13.0693 18.7994 13.3327 18.1637 13.3327 17.5009H13.7444C14.7543 17.4984 15.7291 17.1305 16.4886 16.4651C17.248 15.7997 17.7406 14.8818 17.8754 13.8814L18.0579 12.5027H18.3329C18.5531 12.5074 18.7719 12.4674 18.9762 12.3854C19.1805 12.3033 19.3661 12.1807 19.5218 12.0251C19.6775 11.8694 19.8001 11.6839 19.8823 11.4797C19.9644 11.2754 20.0043 11.0567 19.9996 10.8366C19.9996 9.65372 17.5562 4.9929 16.4995 3.68837ZM17.327 10.8366C17.125 10.8367 16.9298 10.9102 16.7779 11.0433C16.626 11.1765 16.5276 11.3603 16.5012 11.5605L16.2228 13.6639C16.1419 14.2641 15.8462 14.8146 15.3906 15.2137C14.935 15.6128 14.3502 15.8334 13.7444 15.8348H12.4994C12.2783 15.8348 12.0664 15.9226 11.9101 16.0788C11.7538 16.235 11.666 16.4469 11.666 16.6679V17.5009C11.666 17.7218 11.5782 17.9337 11.4219 18.0899C11.2656 18.2462 11.0537 18.3339 10.8326 18.3339H4.99908C4.77806 18.3339 4.56609 18.2462 4.4098 18.0899C4.25352 17.9337 4.16572 17.7218 4.16572 17.5009V16.692C4.17831 15.6225 3.84154 14.5781 3.20652 13.7173C2.41304 12.6783 1.90509 11.45 1.73307 10.1542C1.56105 8.85841 1.73093 7.54019 2.22587 6.3303C2.7208 5.1204 3.52358 4.06088 4.55457 3.25683C5.58557 2.45278 6.80895 1.93214 8.10336 1.74657C8.45681 1.69753 8.81323 1.67303 9.17007 1.67326C10.3411 1.67169 11.496 1.94602 12.5411 2.47401C13.5862 3.002 14.4921 3.76878 15.1853 4.71217C16.5015 6.60515 17.56 8.66469 18.3329 10.8366H17.327ZM13.4994 6.68063C13.4449 6.58568 13.3722 6.50241 13.2855 6.43557C13.1987 6.36873 13.0997 6.31963 12.9939 6.29109C12.8882 6.26254 12.7779 6.2551 12.6693 6.2692C12.5607 6.28329 12.4559 6.31865 12.361 6.37324L11.5427 6.84307C11.1182 6.41304 10.5847 6.10664 9.99927 5.95672V5.0054C9.99927 4.78446 9.91146 4.57258 9.75518 4.41635C9.59889 4.26013 9.38692 4.17236 9.1659 4.17236C8.94488 4.17236 8.73291 4.26013 8.57662 4.41635C8.42034 4.57258 8.33254 4.78446 8.33254 5.0054V5.95672C7.74622 6.10622 7.21177 6.41265 6.78665 6.84307L5.96828 6.37324C5.8734 6.31854 5.76867 6.28306 5.66007 6.26882C5.55147 6.25458 5.44112 6.26187 5.33534 6.29026C5.22955 6.31865 5.1304 6.36758 5.04353 6.43428C4.95667 6.50097 4.88379 6.58412 4.82908 6.67896C4.77436 6.77381 4.73886 6.8785 4.72462 6.98706C4.71037 7.09562 4.71766 7.20591 4.74606 7.31166C4.77446 7.4174 4.82342 7.51652 4.89014 7.60335C4.95686 7.69018 5.04004 7.76302 5.13492 7.81772L5.96245 8.29338C5.8796 8.57855 5.83586 8.87364 5.83245 9.17057C5.83668 9.46761 5.88125 9.7627 5.96495 10.0478L5.13742 10.5234C4.94579 10.6339 4.80592 10.8159 4.74856 11.0295C4.6912 11.243 4.72106 11.4706 4.83157 11.6622C4.94209 11.8537 5.12419 11.9935 5.33784 12.0509C5.55148 12.1082 5.77916 12.0784 5.97078 11.9679L6.78915 11.4981C7.21357 11.9281 7.74712 12.2345 8.33254 12.3844V13.3357C8.33254 13.5567 8.42034 13.7686 8.57662 13.9248C8.73291 14.081 8.94488 14.1688 9.1659 14.1688C9.38692 14.1688 9.59889 14.081 9.75518 13.9248C9.91146 13.7686 9.99927 13.5567 9.99927 13.3357V12.3844C10.5856 12.2349 11.12 11.9285 11.5452 11.4981L12.3635 11.9679C12.4584 12.0226 12.5631 12.0581 12.6717 12.0723C12.7803 12.0865 12.8907 12.0793 12.9965 12.0509C13.1023 12.0225 13.2014 11.9735 13.2883 11.9069C13.3751 11.8402 13.448 11.757 13.5027 11.6622C13.5574 11.5673 13.5929 11.4626 13.6072 11.3541C13.6214 11.2455 13.6141 11.1352 13.5857 11.0295C13.5573 10.9237 13.5084 10.8246 13.4417 10.7378C13.3749 10.651 13.2918 10.5781 13.1969 10.5234L12.3694 10.0478C12.4522 9.76258 12.4959 9.46749 12.4994 9.17057C12.4951 8.87352 12.4506 8.57843 12.3669 8.29338L13.1944 7.81772C13.3856 7.70725 13.5251 7.52546 13.5822 7.31226C13.6394 7.09906 13.6096 6.87188 13.4994 6.68063ZM9.1659 10.8366C8.83625 10.8366 8.51401 10.7389 8.23992 10.5558C7.96583 10.3728 7.7522 10.1126 7.62605 9.80814C7.49989 9.50371 7.46689 9.16872 7.5312 8.84553C7.59551 8.52235 7.75425 8.22548 7.98735 7.99248C8.22044 7.75948 8.51743 7.6008 8.84074 7.53651C9.16405 7.47223 9.49918 7.50522 9.80373 7.63132C10.1083 7.75742 10.3686 7.97097 10.5517 8.24495C10.7349 8.51893 10.8326 8.84105 10.8326 9.17057C10.8326 9.61243 10.657 10.0362 10.3445 10.3487C10.0319 10.6611 9.60795 10.8366 9.1659 10.8366Z" fill="white"/>
</svg>
