<svg width="21" height="21" viewBox="0 0 21 21" fill="none" xmlns="http://www.w3.org/2000/svg">
<path d="M11.8187 10.1532C11.8187 10.4825 11.7211 10.8045 11.5381 11.0783C11.3551 11.3521 11.0951 11.5655 10.7909 11.6915C10.4866 11.8175 10.1518 11.8505 9.82886 11.7863C9.50588 11.722 9.2092 11.5634 8.97635 11.3306C8.74349 11.0977 8.58491 10.801 8.52067 10.4781C8.45642 10.1551 8.4894 9.82031 8.61542 9.51607C8.74144 9.21182 8.95485 8.95178 9.22866 8.76883C9.50247 8.58588 9.82438 8.48822 10.1537 8.48822C10.5953 8.48822 11.0188 8.66365 11.331 8.9759C11.6433 9.28815 11.8187 9.71165 11.8187 10.1532ZM20.9763 11.8183C20.9809 12.0382 20.941 12.2568 20.859 12.4609C20.777 12.665 20.6545 12.8504 20.499 13.006C20.3434 13.1615 20.158 13.284 19.9539 13.366C19.7498 13.448 19.5312 13.4879 19.3113 13.4833H19.0365L18.8542 14.8611C18.7196 15.8609 18.2275 16.7781 17.4688 17.4431C16.7102 18.1081 15.7363 18.4759 14.7275 18.4783H14.3162C14.3162 19.1407 14.0531 19.7759 13.5847 20.2443C13.1163 20.7127 12.4811 20.9758 11.8187 20.9758H5.99116C5.32877 20.9758 4.69352 20.7127 4.22514 20.2443C3.75677 19.7759 3.49363 19.1407 3.49363 18.4783V17.6699C3.50683 16.9668 3.29056 16.2786 2.87758 15.7094C2.14042 14.7516 1.60029 13.6573 1.28834 12.4896C0.976404 11.322 0.89884 10.1041 1.06013 8.90627C1.22142 7.70847 1.61837 6.55448 2.22807 5.51091C2.83776 4.46735 3.64812 3.55489 4.61237 2.82621C5.57661 2.09753 6.67564 1.56706 7.84601 1.26542C9.01638 0.963788 10.2349 0.896964 11.4312 1.06881C12.6276 1.24065 13.778 1.64776 14.8162 2.26663C15.8543 2.8855 16.7596 3.70388 17.4798 4.67451C18.5354 5.97822 20.9763 10.6361 20.9763 11.8183ZM13.3513 9.27661L14.178 8.80125C14.3695 8.69085 14.5092 8.50893 14.5665 8.29551C14.6238 8.08208 14.594 7.85464 14.4836 7.66321C14.3732 7.47178 14.1912 7.33205 13.9778 7.27475C13.7644 7.21745 13.537 7.24728 13.3455 7.35768L12.528 7.82721C12.104 7.39746 11.571 7.09125 10.9862 6.94143V5.9907C10.9862 5.76991 10.8985 5.55816 10.7424 5.40203C10.5862 5.24591 10.3745 5.1582 10.1537 5.1582C9.9329 5.1582 9.72115 5.24591 9.56502 5.40203C9.40889 5.55816 9.32118 5.76991 9.32118 5.9907V6.94143C8.73547 7.09083 8.20157 7.39707 7.77688 7.82721L6.95936 7.35768C6.86458 7.30302 6.75995 7.26756 6.65146 7.25333C6.54297 7.2391 6.43274 7.24638 6.32707 7.27475C6.22139 7.30312 6.12234 7.35203 6.03556 7.41868C5.94878 7.48533 5.87599 7.56842 5.82132 7.66321C5.76666 7.758 5.7312 7.86262 5.71697 7.97111C5.70274 8.0796 5.71002 8.18983 5.73839 8.29551C5.76677 8.40118 5.81567 8.50024 5.88233 8.58701C5.94898 8.67379 6.03207 8.74658 6.12685 8.80125L6.95353 9.27661C6.87077 9.56159 6.82708 9.8565 6.82366 10.1532C6.82789 10.4501 6.87242 10.745 6.95603 11.0299L6.12935 11.5052C5.93792 11.6156 5.79819 11.7975 5.74089 12.011C5.68359 12.2244 5.71342 12.4518 5.82382 12.6433C5.93422 12.8347 6.11614 12.9744 6.32956 13.0317C6.54299 13.089 6.77043 13.0592 6.96186 12.9488L7.77938 12.4793C8.20337 12.909 8.73637 13.2152 9.32118 13.3651V14.3158C9.32118 14.5366 9.40889 14.7483 9.56502 14.9044C9.72115 15.0606 9.9329 15.1483 10.1537 15.1483C10.3745 15.1483 10.5862 15.0606 10.7424 14.9044C10.8985 14.7483 10.9862 14.5366 10.9862 14.3158V13.3651C11.5719 13.2156 12.1058 12.9094 12.5305 12.4793L13.348 12.9488C13.4428 13.0035 13.5474 13.0389 13.6559 13.0531C13.7644 13.0674 13.8746 13.0601 13.9803 13.0317C14.086 13.0034 14.185 12.9544 14.2718 12.8878C14.3586 12.8211 14.4314 12.7381 14.4861 12.6433C14.5407 12.5485 14.5762 12.4439 14.5904 12.3354C14.6046 12.2269 14.5974 12.1166 14.569 12.011C14.5406 11.9053 14.4917 11.8062 14.4251 11.7195C14.3584 11.6327 14.2753 11.5599 14.1805 11.5052L13.3538 11.0299C13.4366 10.7449 13.4803 10.45 13.4837 10.1532C13.4795 9.85638 13.435 9.56148 13.3513 9.27661V9.27661Z" fill="white"/>
</svg>
