<svg width="20" height="20" viewBox="0 0 20 20" fill="none" xmlns="http://www.w3.org/2000/svg">
<path d="M8.19193 17.2393C6.82943 16.9051 5.58837 16.1945 4.61046 15.1886C3.63255 14.1827 2.9572 12.9222 2.66152 11.5508C2.36584 10.1794 2.46176 8.75254 2.93832 7.43308C3.41487 6.11362 4.25286 4.95476 5.3566 4.08883C6.46034 3.22289 7.78533 2.68478 9.1803 2.53595C10.5753 2.38711 11.984 2.63354 13.2456 3.2471C14.5072 3.86066 15.5708 4.81662 16.315 6.00582C17.0592 7.19503 17.4541 8.56955 17.4544 9.97243C17.4544 10.3031 17.5857 10.6202 17.8195 10.854C18.0534 11.0878 18.3705 11.2192 18.7011 11.2192C19.0318 11.2192 19.3489 11.0878 19.5827 10.854C19.8165 10.6202 19.9479 10.3031 19.9479 9.97243C19.9476 8.10179 19.4212 6.26893 18.4289 4.68317C17.4366 3.09741 16.0184 1.82267 14.3361 1.00452C12.6539 0.186374 10.7755 -0.142195 8.91541 0.0563347C7.05533 0.254864 5.28858 0.97249 3.81691 2.12726C2.34524 3.28203 1.22798 4.82739 0.592728 6.58686C-0.0425287 8.34633 -0.170176 10.249 0.224364 12.0776C0.618904 13.9061 1.51973 15.5869 2.82396 16.9279C4.12819 18.2689 5.78325 19.2161 7.60014 19.6613C7.69693 19.6853 7.79631 19.6973 7.89603 19.697C8.20073 19.6967 8.49476 19.5848 8.72258 19.3825C8.95041 19.1802 9.09625 18.9014 9.13257 18.5989C9.16889 18.2964 9.09317 17.991 8.91971 17.7405C8.74625 17.49 8.48789 17.3117 8.19193 17.2393Z" fill="white"/>
<path d="M19.6329 13.2469C19.3991 13.0132 19.082 12.8819 18.7514 12.8819C18.4208 12.8819 18.1038 13.0132 17.87 13.2469L13.8929 17.2215L12.12 15.3431C12.0066 15.225 11.8711 15.1304 11.7211 15.0646C11.5711 14.9989 11.4097 14.9634 11.246 14.9601C11.0823 14.9568 10.9195 14.9857 10.767 15.0453C10.6145 15.1049 10.4752 15.1939 10.3571 15.3073C10.2391 15.4208 10.1445 15.5564 10.0789 15.7064C10.0132 15.8564 9.97778 16.0179 9.97454 16.1816C9.9713 16.3453 10.0003 16.508 10.06 16.6605C10.1196 16.813 10.2088 16.9522 10.3222 17.0702L12.4674 19.3318C12.6468 19.5218 12.8622 19.674 13.1011 19.7796C13.34 19.8852 13.5976 19.9421 13.8588 19.9469H13.8896C14.407 19.9452 14.903 19.7397 15.2701 19.375L19.637 15.0098C19.8702 14.7754 20.0008 14.4581 20 14.1275C19.9992 13.7969 19.8672 13.4801 19.6329 13.2469Z" fill="white"/>
<path d="M8.7272 6.23225V9.18702L6.73242 10.4338C6.5936 10.5207 6.47327 10.6341 6.3783 10.7675C6.28332 10.9009 6.21557 11.0518 6.17891 11.2114C6.14224 11.371 6.13739 11.5363 6.16462 11.6978C6.19185 11.8593 6.25064 12.0138 6.33761 12.1526C6.42452 12.2914 6.53793 12.4117 6.67136 12.5067C6.80479 12.6017 6.95562 12.6694 7.11524 12.7061C7.27486 12.7428 7.44014 12.7476 7.60164 12.7204C7.76313 12.6932 7.91768 12.6344 8.05646 12.5474L10.4411 11.0513C10.6803 10.9014 10.8774 10.693 11.0138 10.4458C11.1502 10.1986 11.2214 9.92068 11.2207 9.63834V6.23225C11.2207 5.90159 11.0893 5.58448 10.8555 5.35067C10.6217 5.11686 10.3046 4.98551 9.97394 4.98551C9.64329 4.98551 9.32617 5.11686 9.09237 5.35067C8.85856 5.58448 8.7272 5.90159 8.7272 6.23225Z" fill="white"/>
</svg>
