<svg width="20" height="20" viewBox="0 0 20 20" fill="none" xmlns="http://www.w3.org/2000/svg">
<path d="M8.19193 17.2852C6.82943 16.9501 5.58837 16.2376 4.61046 15.2291C3.63255 14.2205 2.9572 12.9566 2.66152 11.5815C2.36584 10.2065 2.46176 8.77585 2.93832 7.45287C3.41487 6.1299 4.25286 4.96796 5.3566 4.09972C6.46034 3.23148 7.78533 2.69193 9.1803 2.5427C10.5753 2.39346 11.984 2.64055 13.2456 3.25574C14.5072 3.87094 15.5708 4.82944 16.315 6.02182C17.0592 7.21419 17.4541 8.59237 17.4544 9.99898C17.4544 10.3305 17.5857 10.6485 17.8195 10.8829C18.0534 11.1173 18.3705 11.249 18.7011 11.249C19.0318 11.249 19.3489 11.1173 19.5827 10.8829C19.8165 10.6485 19.9479 10.3305 19.9479 9.99898C19.9476 8.12336 19.4212 6.28562 18.4289 4.69564C17.4366 3.10565 16.0184 1.82752 14.3361 1.00719C12.6539 0.186871 10.7755 -0.142574 8.91541 0.0564847C7.05533 0.255543 5.28858 0.975079 3.81691 2.13292C2.34524 3.29077 1.22798 4.84024 0.592728 6.6044C-0.0425287 8.36856 -0.170176 10.2763 0.224364 12.1097C0.618904 13.9431 1.51973 15.6284 2.82396 16.9729C4.12819 18.3175 5.78325 19.2672 7.60014 19.7136C7.69693 19.7377 7.79631 19.7497 7.89603 19.7495C8.20073 19.7491 8.49476 19.637 8.72258 19.4341C8.95041 19.2312 9.09625 18.9517 9.13257 18.6484C9.16889 18.3451 9.09317 18.0389 8.91971 17.7878C8.74625 17.5366 8.48789 17.3578 8.19193 17.2852Z" fill="#FFA500"/>
<path d="M19.6329 13.2822C19.3991 13.0478 19.082 12.9162 18.7514 12.9162C18.4208 12.9162 18.1038 13.0478 17.87 13.2822L13.8929 17.2674L12.12 15.3839C12.0066 15.2655 11.8711 15.1706 11.7211 15.1048C11.5711 15.0389 11.4097 15.0032 11.246 14.9999C11.0823 14.9966 10.9195 15.0256 10.767 15.0854C10.6145 15.1451 10.4752 15.2344 10.3571 15.3481C10.2391 15.4619 10.1445 15.5978 10.0789 15.7482C10.0132 15.8986 9.97778 16.0605 9.97454 16.2246C9.9713 16.3888 10.0003 16.552 10.06 16.7048C10.1196 16.8577 10.2088 16.9973 10.3222 17.1157L12.4674 19.3833C12.6468 19.5737 12.8622 19.7264 13.1011 19.8323C13.34 19.9382 13.5976 19.9952 13.8588 20H13.8896C14.407 19.9983 14.903 19.7923 15.2701 19.4266L19.637 15.0498C19.8702 14.8148 20.0008 14.4966 20 14.1651C19.9992 13.8336 19.8672 13.516 19.6329 13.2822Z" fill="#FFA500"/>
<path d="M8.7272 6.24884V9.21148L6.73242 10.4615C6.5936 10.5487 6.47327 10.6624 6.3783 10.7962C6.28332 10.93 6.21557 11.0812 6.17891 11.2412C6.14224 11.4013 6.13739 11.567 6.16462 11.7289C6.19185 11.8909 6.25064 12.0458 6.33761 12.185C6.42452 12.3241 6.53793 12.4448 6.67136 12.54C6.80479 12.6352 6.95562 12.7032 7.11524 12.7399C7.27486 12.7767 7.44014 12.7816 7.60164 12.7543C7.76313 12.727 7.91768 12.668 8.05646 12.5808L10.4411 11.0807C10.6803 10.9304 10.8774 10.7215 11.0138 10.4736C11.1502 10.2257 11.2214 9.9471 11.2207 9.66401V6.24884C11.2207 5.91731 11.0893 5.59935 10.8555 5.36492C10.6217 5.13048 10.3046 4.99878 9.97394 4.99878C9.64329 4.99878 9.32617 5.13048 9.09237 5.36492C8.85856 5.59935 8.7272 5.91731 8.7272 6.24884Z" fill="#FFA500"/>
</svg>
