<svg width="21" height="20" viewBox="0 0 21 20" fill="none" xmlns="http://www.w3.org/2000/svg">
<path d="M17.6667 9.16504C15.8258 9.16504 14.3334 10.6574 14.3334 12.4984V16.665C14.3334 18.506 15.8258 19.9984 17.6667 19.9984C19.5076 19.9984 21 18.506 21 16.665V12.4984C21 10.6574 19.5076 9.16504 17.6667 9.16504ZM18.5 16.665C18.5 17.1253 18.1269 17.4984 17.6667 17.4984C17.2065 17.4984 16.8334 17.1253 16.8334 16.665V12.4984C16.8334 12.0381 17.2065 11.665 17.6667 11.665C18.1269 11.665 18.5 12.0381 18.5 12.4984V16.665Z" fill="#FFA500"/>
<path d="M9.74999 12.4984C9.3232 12.5024 8.90031 12.5802 8.5 12.7284V12.5675C8.50046 12.0693 8.90425 11.6655 9.40249 11.665H10.5833C11.2737 11.665 11.8333 11.1054 11.8333 10.415C11.8333 9.72469 11.2737 9.16504 10.5833 9.16504H9.40249C7.52429 9.16734 6.0023 10.6893 6 12.5675C6 12.5675 6.00891 16.4161 6.02582 16.4984C6.16852 18.5599 7.95535 20.1154 10.0169 19.9727C12.0785 19.83 13.634 18.0432 13.4913 15.9816C13.3553 14.0169 11.7195 12.4939 9.74999 12.4984ZM9.74999 17.4984C9.05964 17.4984 8.5 16.9387 8.5 16.2484C8.5 15.558 9.05964 14.9984 9.74999 14.9984C10.4403 14.9984 11 15.558 11 16.2484C11 16.9387 10.4403 17.4984 9.74999 17.4984Z" fill="#FFA500"/>
<path d="M19.577 2.25549L18.4745 3.35799C14.8062 -0.770561 8.48556 -1.14369 4.35697 2.52463C0.8597 5.63202 -0.0157295 10.7489 2.24954 14.8422C2.57962 15.4485 3.33872 15.6725 3.94505 15.3424C4.55138 15.0123 4.77536 14.2532 4.44529 13.6469C4.44232 13.6414 4.43927 13.636 4.43618 13.6305C2.42857 10.0116 3.73474 5.45045 7.35361 3.44284C10.4737 1.7119 14.3816 2.42108 16.6945 5.13803L15.7554 6.07721C15.43 6.40268 15.4301 6.93034 15.7556 7.25573C15.9118 7.4119 16.1236 7.49967 16.3445 7.49971H20.1662C20.6265 7.49971 20.9995 7.12663 20.9995 6.66639V2.84467C20.9994 2.38444 20.6263 2.01143 20.166 2.01151C19.9451 2.01155 19.7333 2.09932 19.577 2.25549Z" fill="#FFA500"/>
</svg>
