<svg width="20" height="20" viewBox="0 0 20 20" fill="none" xmlns="http://www.w3.org/2000/svg">
<path d="M3.33388 5.43941C3.00535 5.44035 2.67991 5.37014 2.37639 5.23283C2.07287 5.09553 1.79729 4.89386 1.5656 4.63949L0.278977 3.38909C0.113885 3.22834 0.0140264 3.00256 0.00136814 2.76141C-0.0112902 2.52026 0.0642892 2.2835 0.21148 2.1032C0.35867 1.92291 0.565414 1.81385 0.786231 1.80003C1.00705 1.7862 1.22385 1.86874 1.38894 2.02949L2.70973 3.31629C2.78534 3.40902 2.87753 3.48387 2.98062 3.53623C3.08371 3.5886 3.19552 3.61737 3.30918 3.62078C3.42283 3.62419 3.53592 3.60217 3.64149 3.55606C3.74705 3.50995 3.84287 3.44074 3.92303 3.35269L6.92626 0.230336C7.08775 0.0733273 7.2988 -0.00898703 7.51483 0.000779531C7.73086 0.0105461 7.93495 0.111629 8.08401 0.282677C8.23306 0.453726 8.3154 0.681347 8.31364 0.917464C8.31188 1.15358 8.22615 1.37971 8.07456 1.54808L5.08382 4.65496C4.85364 4.90487 4.58061 5.10279 4.28034 5.23739C3.98007 5.37199 3.65846 5.44064 3.33388 5.43941V5.43941ZM20 3.61933C20 3.37797 19.9122 3.1465 19.7559 2.97583C19.5997 2.80517 19.3877 2.70929 19.1667 2.70929H10.8336C10.6126 2.70929 10.4007 2.80517 10.2444 2.97583C10.0881 3.1465 10.0003 3.37797 10.0003 3.61933C10.0003 3.86069 10.0881 4.09216 10.2444 4.26283C10.4007 4.43349 10.6126 4.52937 10.8336 4.52937H19.1667C19.3877 4.52937 19.5997 4.43349 19.7559 4.26283C19.9122 4.09216 20 3.86069 20 3.61933ZM5.08382 11.9353L8.07456 8.8284C8.15803 8.74725 8.2257 8.64858 8.27355 8.53828C8.32139 8.42797 8.34843 8.30829 8.35305 8.18634C8.35767 8.06439 8.33979 7.94267 8.30045 7.82843C8.26112 7.71419 8.20115 7.60975 8.1241 7.52133C8.04706 7.43292 7.95451 7.36233 7.85198 7.31378C7.74944 7.26522 7.63901 7.23968 7.52725 7.23869C7.4155 7.23769 7.3047 7.26126 7.20145 7.30798C7.0982 7.35471 7.00462 7.42363 6.92626 7.51066L3.92636 10.633C3.76772 10.7987 3.5567 10.8911 3.33721 10.8911C3.11773 10.8911 2.9067 10.7987 2.74806 10.633L1.42311 9.1906C1.26594 9.02483 1.05545 8.9331 0.836958 8.93518C0.618468 8.93725 0.409464 9.03296 0.254963 9.20169C0.100461 9.37041 0.012823 9.59866 0.0109244 9.83727C0.00902574 10.0759 0.0930183 10.3058 0.244812 10.4774L1.5656 11.9198C2.03198 12.4293 2.66383 12.7168 3.32346 12.7197C3.98309 12.7225 4.61704 12.4406 5.08715 11.9353H5.08382ZM20 10.8997C20 10.6583 19.9122 10.4268 19.7559 10.2562C19.5997 10.0855 19.3877 9.98962 19.1667 9.98962H10.8336C10.6126 9.98962 10.4007 10.0855 10.2444 10.2562C10.0881 10.4268 10.0003 10.6583 10.0003 10.8997C10.0003 11.141 10.0881 11.3725 10.2444 11.5432C10.4007 11.7138 10.6126 11.8097 10.8336 11.8097H19.1667C19.3877 11.8097 19.5997 11.7138 19.7559 11.5432C19.9122 11.3725 20 11.141 20 10.8997ZM5.08382 19.2156L8.07122 16.1087C8.1547 16.0276 8.22237 15.9289 8.27021 15.8186C8.31806 15.7083 8.34509 15.5886 8.34972 15.4667C8.35434 15.3447 8.33645 15.223 8.29712 15.1088C8.25779 14.9945 8.19782 14.8901 8.12077 14.8017C8.04372 14.7132 7.95118 14.6427 7.84864 14.5941C7.74611 14.5455 7.63568 14.52 7.52392 14.519C7.41216 14.518 7.30136 14.5416 7.19812 14.5883C7.09487 14.635 7.00128 14.704 6.92293 14.791L3.92303 17.9133C3.84287 18.0014 3.74705 18.0706 3.64149 18.1167C3.53592 18.1628 3.42283 18.1849 3.30918 18.1814C3.19552 18.178 3.08371 18.1493 2.98062 18.0969C2.87753 18.0445 2.78534 17.9697 2.70973 17.8769L1.38894 16.5901C1.22385 16.4294 1.00705 16.3469 0.786231 16.3607C0.565414 16.3745 0.35867 16.4836 0.21148 16.6639C0.0642892 16.8442 -0.0112902 17.0809 0.00136814 17.3221C0.0140264 17.5632 0.113885 17.789 0.278977 17.9497L1.5656 19.2001C2.03198 19.7096 2.66383 19.9971 3.32346 20C3.98309 20.0029 4.61704 19.7209 5.08715 19.2156H5.08382ZM20 18.18C20 17.9386 19.9122 17.7072 19.7559 17.5365C19.5997 17.3658 19.3877 17.2699 19.1667 17.2699H10.8336C10.6126 17.2699 10.4007 17.3658 10.2444 17.5365C10.0881 17.7072 10.0003 17.9386 10.0003 18.18C10.0003 18.4213 10.0881 18.6528 10.2444 18.8235C10.4007 18.9942 10.6126 19.09 10.8336 19.09H19.1667C19.3877 19.09 19.5997 18.9942 19.7559 18.8235C19.9122 18.6528 20 18.4213 20 18.18Z" fill="white"/>
</svg>
