<svg width="21" height="21" viewBox="0 0 21 21" fill="none" xmlns="http://www.w3.org/2000/svg">
<path d="M10.0436 0C7.5868 0.0072225 5.21733 0.912144 3.38115 2.54446L2.26544 1.42875C2.14838 1.31173 1.99926 1.23204 1.83693 1.19976C1.67459 1.16748 1.50632 1.18405 1.35341 1.24739C1.20049 1.31072 1.06978 1.41798 0.977808 1.55559C0.885835 1.6932 0.836727 1.85499 0.836692 2.0205V5.85895C0.836692 6.08093 0.924875 6.29383 1.08184 6.45079C1.23881 6.60776 1.4517 6.69594 1.67368 6.69594H5.51213C5.67765 6.69591 5.83944 6.6468 5.97705 6.55483C6.11466 6.46285 6.22191 6.33215 6.28525 6.17923C6.34858 6.02631 6.36516 5.85805 6.33288 5.69571C6.3006 5.53337 6.22091 5.38425 6.10389 5.2672L5.1539 4.31721C6.2625 3.37018 7.6221 2.76523 9.06776 2.57575C10.5134 2.38627 11.983 2.6204 13.2982 3.24973C14.6134 3.87907 15.7177 4.87657 16.4772 6.1212C17.2366 7.36583 17.6185 8.80411 17.5765 10.2615C17.5227 12.1447 16.7652 13.9392 15.4535 15.2914C14.1417 16.6436 12.3709 17.4552 10.4903 17.5661C8.6097 17.677 6.75577 17.0793 5.29414 15.8908C3.8325 14.7022 2.86926 13.0091 2.59438 11.1454C2.55513 10.8424 2.40742 10.5638 2.17859 10.3613C1.94977 10.1588 1.65533 10.046 1.34977 10.0439C1.17246 10.0416 0.996712 10.0772 0.834253 10.1483C0.671793 10.2193 0.526368 10.3242 0.40769 10.456C0.289013 10.5877 0.199816 10.7433 0.146058 10.9123C0.0922992 11.0812 0.0752175 11.2597 0.0959533 11.4358C0.444319 13.9016 1.69493 16.1505 3.6058 17.7473C5.51666 19.3442 7.95192 20.1754 10.4403 20.0803C12.9578 19.959 15.3398 18.9045 17.122 17.1223C18.9042 15.3401 19.9587 12.9581 20.08 10.4406C20.1319 9.08967 19.9108 7.74211 19.4299 6.47855C18.9491 5.21498 18.2183 4.06137 17.2814 3.0867C16.3444 2.11203 15.2206 1.33632 13.977 0.805957C12.7334 0.275597 11.3956 0.00148004 10.0436 0Z" fill="white"/>
<path d="M9.62507 5.85838C9.2921 5.85838 8.97276 5.99065 8.73731 6.2261C8.50186 6.46155 8.36959 6.78089 8.36959 7.11387V10.7071C8.36968 11.151 8.54611 11.5767 8.86006 11.8906L10.3608 13.3913C10.5976 13.62 10.9147 13.7465 11.2439 13.7437C11.5731 13.7408 11.888 13.6088 12.1208 13.376C12.3535 13.1432 12.4856 12.8283 12.4884 12.4992C12.4913 12.17 12.3647 11.8528 12.136 11.616L10.8806 10.3606V7.11387C10.8806 6.78089 10.7483 6.46155 10.5128 6.2261C10.2774 5.99065 9.95805 5.85838 9.62507 5.85838Z" fill="white"/>
</svg>
