<svg width="21" height="20" viewBox="0 0 21 20" fill="none" xmlns="http://www.w3.org/2000/svg">
<path d="M10.0436 0C7.5868 0.00719098 5.21733 0.908164 3.38115 2.53336L2.26544 1.42251C2.14838 1.306 1.99926 1.22666 1.83693 1.19452C1.67459 1.16238 1.50632 1.17889 1.35341 1.24195C1.20049 1.30501 1.06978 1.41179 0.977808 1.5488C0.885835 1.68581 0.836727 1.84689 0.836692 2.01169V5.83339C0.836692 6.0544 0.924875 6.26637 1.08184 6.42265C1.23881 6.57893 1.4517 6.66673 1.67368 6.66673H5.51213C5.67765 6.66669 5.83944 6.6178 5.97705 6.52623C6.11466 6.43466 6.22191 6.30452 6.28525 6.15227C6.34858 6.00002 6.36516 5.83249 6.33288 5.67086C6.3006 5.50923 6.22091 5.36076 6.10389 5.24421L5.1539 4.29837C6.2625 3.35548 7.6221 2.75317 9.06776 2.56451C10.5134 2.37586 11.983 2.60896 13.2982 3.23556C14.6134 3.86215 15.7177 4.85529 16.4772 6.09449C17.2366 7.33369 17.6185 8.7657 17.5765 10.2168C17.5227 12.0917 16.7652 13.8784 15.4535 15.2247C14.1417 16.571 12.3709 17.379 10.4903 17.4895C8.6097 17.5999 6.75577 17.0048 5.29414 15.8214C3.8325 14.6381 2.86926 12.9524 2.59438 11.0968C2.55513 10.7951 2.40742 10.5177 2.17859 10.3161C1.94977 10.1145 1.65533 10.0022 1.34977 10.0001C1.17246 9.99781 0.996712 10.0332 0.834253 10.104C0.671793 10.1747 0.526368 10.2792 0.40769 10.4104C0.289013 10.5415 0.199816 10.6964 0.146058 10.8646C0.0922992 11.0329 0.0752175 11.2106 0.0959533 11.3859C0.444319 13.8409 1.69493 16.08 3.6058 17.6699C5.51666 19.2598 7.95192 20.0874 10.4403 19.9927C12.9578 19.8719 15.3398 18.822 17.122 17.0476C18.9042 15.2732 19.9587 12.9016 20.08 10.3951C20.1319 9.05001 19.9108 7.70833 19.4299 6.45028C18.9491 5.19223 18.2183 4.04365 17.2814 3.07323C16.3444 2.10281 15.2206 1.33049 13.977 0.80244C12.7334 0.274394 11.3956 0.00147359 10.0436 0Z" fill="#FFA500"/>
<path d="M9.62507 5.83282C9.2921 5.83282 8.97276 5.96451 8.73731 6.19894C8.50186 6.43336 8.36959 6.7513 8.36959 7.08283V10.6604C8.36968 11.1023 8.54611 11.5262 8.86006 11.8387L10.3608 13.3329C10.5976 13.5606 10.9147 13.6866 11.2439 13.6837C11.5731 13.6809 11.888 13.5494 12.1208 13.3176C12.3535 13.0859 12.4856 12.7724 12.4884 12.4446C12.4913 12.1169 12.3647 11.8011 12.136 11.5654L10.8806 10.3154V7.08283C10.8806 6.7513 10.7483 6.43336 10.5128 6.19894C10.2774 5.96451 9.95805 5.83282 9.62507 5.83282Z" fill="#FFA500"/>
</svg>
