<svg width="20" height="20" viewBox="0 0 20 20" fill="none" xmlns="http://www.w3.org/2000/svg">
<path id="trash" d="M19 3.33332H15.9C15.4216 1.39465 13.3751 0.0025 11 0H8.99997C6.62485 0.0025 4.57838 1.39465 4.09997 3.33332H0.999986C0.447704 3.33332 0 3.70641 0 4.16664C0 4.62687 0.447704 5 0.999986 5H1.99997V15.8333C2.0033 18.1334 4.23994 19.9973 7 20H13C15.7601 19.9973 17.9967 18.1334 18 15.8333V5H19C19.5523 5 20 4.62691 20 4.16668C20 3.70645 19.5523 3.33332 19 3.33332ZM9.00001 14.1667C9.00001 14.6269 8.55231 15 8.00003 15C7.4477 15 7 14.6269 7 14.1667V9.16668C7 8.70645 7.4477 8.33336 7.99998 8.33336C8.55226 8.33336 8.99997 8.70645 8.99997 9.16668V14.1667H9.00001ZM13 14.1667C13 14.6269 12.5523 15 12 15C11.4477 15 11 14.6269 11 14.1667V9.16668C11 8.70645 11.4477 8.33336 12 8.33336C12.5523 8.33336 13 8.70645 13 9.16668V14.1667ZM6.17101 3.33332C6.59635 2.33523 7.72904 1.66793 9.00001 1.66664H11C12.271 1.66793 13.4037 2.33523 13.829 3.33332H6.17101Z" fill="white"/>
</svg>
