<svg width="20" height="20" viewBox="0 0 20 20" fill="none" xmlns="http://www.w3.org/2000/svg">
<path d="M2.50897 17.6022C2.34024 17.6021 2.17555 17.5506 2.03669 17.4547C1.37669 17.0258 0.841456 16.4303 0.485034 15.7282C0.128613 15.0262 -0.0363805 14.2425 0.00671149 13.4562C0.0498035 12.67 0.299456 11.909 0.730463 11.2502C1.16147 10.5913 1.75857 10.0579 2.46149 9.70383C1.73829 8.38847 1.50231 6.8599 1.79514 5.3875C2.07988 3.93094 2.84219 2.61108 3.9613 1.63699C5.08042 0.6629 6.49236 0.0902709 7.97348 0.00980953C9.45459 -0.0706518 10.9202 0.345655 12.1381 1.19279C13.3561 2.03992 14.2567 3.26944 14.6974 4.68659C14.7393 4.83026 14.8161 4.96128 14.9211 5.0679C15.0261 5.17452 15.1558 5.25341 15.2988 5.29749C16.3467 5.61872 17.299 6.1942 18.071 6.97271C18.8429 7.75122 19.4106 8.70861 19.7233 9.75967C19.7813 9.96983 19.7546 10.1943 19.649 10.3851C19.5435 10.5758 19.3674 10.7175 19.1587 10.7799C18.9499 10.8422 18.725 10.8203 18.5322 10.7187C18.3394 10.6171 18.1941 10.4439 18.1274 10.2364C17.8926 9.44847 17.4669 8.7308 16.8882 8.14717C16.3094 7.56354 15.5954 7.13203 14.8098 6.89101C14.4084 6.76625 14.0435 6.54534 13.7468 6.24745C13.4501 5.94956 13.2306 5.5837 13.1073 5.18164C12.9071 4.51403 12.5696 3.89566 12.1165 3.36624C11.6634 2.83681 11.1046 2.40801 10.4761 2.10736C9.84766 1.80672 9.1633 1.64086 8.46697 1.62043C7.77065 1.60001 7.07776 1.72546 6.43275 1.98875C5.78774 2.25204 5.20486 2.64735 4.72152 3.14931C4.23819 3.65126 3.86507 4.24878 3.62611 4.90352C3.38715 5.55825 3.28763 6.25575 3.33393 6.95123C3.38023 7.64672 3.57134 8.32484 3.89498 8.94207C4.10134 9.32717 4.14782 9.77809 4.02435 10.1972C3.90088 10.6163 3.61741 10.97 3.23529 11.1815C2.78651 11.4024 2.40485 11.7392 2.12979 12.1571C1.85474 12.5751 1.69627 13.0589 1.67079 13.5587C1.64531 14.0585 1.75375 14.556 1.98487 14.9998C2.21599 15.4435 2.56142 15.8175 2.98541 16.0829C3.13183 16.184 3.24204 16.3294 3.29991 16.4977C3.35778 16.666 3.36027 16.8485 3.30701 17.0183C3.25375 17.1882 3.14754 17.3365 3.00393 17.4416C2.86033 17.5466 2.68687 17.6029 2.50897 17.6022V17.6022ZM15.9193 20C16.2179 19.9861 16.5142 19.9419 16.8039 19.8683C17.5544 19.6941 18.241 19.3127 18.7858 18.7677C19.3305 18.2226 19.7116 17.5356 19.8858 16.7846C20.1377 15.7293 19.9693 14.6174 19.4164 13.6841C18.8634 12.7508 17.9692 12.0694 16.923 11.7841C16.923 11.7841 16.3991 11.6632 16.285 11.3915C15.882 10.4188 15.1825 9.59825 14.2861 9.04669C13.3898 8.49513 12.3423 8.24076 11.2929 8.31982C10.2436 8.39889 9.24597 8.80736 8.44225 9.48702C7.63854 10.1667 7.06974 11.0828 6.81694 12.1049C6.63695 12.8516 6.62075 13.6284 6.76946 14.3819C6.2147 14.6206 5.74771 15.0258 5.43302 15.5415C5.11833 16.0572 4.97145 16.6579 5.01269 17.2608C5.05393 17.8636 5.28124 18.4387 5.66323 18.9067C6.04521 19.3747 6.56302 19.7125 7.14511 19.8733C7.37122 19.9413 7.60423 19.9838 7.83979 20H15.9193ZM14.7532 12.0358C14.8979 12.3956 15.1349 12.7108 15.4403 12.9498C15.7456 13.1887 16.1085 13.3429 16.4924 13.3967C17.1219 13.5706 17.6591 13.9826 17.9905 14.5457C18.3219 15.1087 18.4215 15.7786 18.2682 16.4138C18.1606 16.8578 17.9325 17.2635 17.6092 17.5861C17.2859 17.9087 16.8798 18.1358 16.4357 18.2423C16.2566 18.2834 16.0739 18.3063 15.8902 18.3106C14.5033 18.3381 9.00091 18.3423 7.89393 18.3106C7.78732 18.3072 7.68142 18.2919 7.57824 18.2648C7.3744 18.2093 7.18836 18.102 7.03818 17.9534C6.88801 17.8047 6.77879 17.6197 6.72115 17.4164C6.63527 17.1235 6.65995 16.8093 6.79048 16.5335C6.92102 16.2577 7.14832 16.0395 7.42915 15.9204C7.79224 15.7665 8.08967 15.4897 8.26936 15.1385C8.44905 14.7873 8.49955 14.384 8.41202 13.9993C8.30735 13.506 8.31618 12.9953 8.43784 12.5058C8.6075 11.8251 8.98747 11.2153 9.52366 10.7632C10.0598 10.3111 10.7249 10.0398 11.4241 9.9879C12.1234 9.93601 12.8212 10.1062 13.4181 10.4742C14.0151 10.8421 14.4809 11.3892 14.749 12.0374L14.7532 12.0358Z" fill="white"/>
</svg>
