<svg width="21" height="20" viewBox="0 0 21 20" fill="none" xmlns="http://www.w3.org/2000/svg">
<path id="weather" d="M7.83861 20C7.60366 19.9853 7.37107 19.9445 7.14516 19.8783C6.5627 19.7175 6.04456 19.3797 5.66232 18.9117C5.28009 18.4436 5.05263 17.8685 5.01137 17.2656C4.9701 16.6628 5.11707 16.062 5.43197 15.5462C5.74686 15.0305 6.21415 14.6253 6.76926 14.3865C6.62046 13.633 6.63667 12.8562 6.81677 12.1095C7.06974 11.0873 7.6389 10.1711 8.44314 9.49142C9.24737 8.81172 10.2456 8.40322 11.2956 8.32415C12.3457 8.24508 13.3938 8.49946 14.2908 9.05105C15.1877 9.60264 15.8877 10.4233 16.2909 11.396V11.396C16.3593 11.5068 16.4526 11.5999 16.5635 11.6681C16.6744 11.7363 16.7997 11.7775 16.9293 11.7886C17.9762 12.0739 18.871 12.7553 19.4243 13.6887C19.9776 14.6221 20.1461 15.7341 19.894 16.7894C19.7198 17.5404 19.3384 18.2275 18.7933 18.7726C18.2482 19.3177 17.5611 19.6991 16.8102 19.8733C16.5196 19.9454 16.2225 19.9878 15.9233 20H7.83861ZM5.0048 13.5239C4.98852 12.9155 5.05298 12.3076 5.19649 11.7161C5.52063 10.3983 6.23914 9.21082 7.25604 8.31222C8.27294 7.41362 9.53982 6.84669 10.8875 6.68716C12.2351 6.52763 13.5993 6.78309 14.7979 7.41942C15.9965 8.05576 16.9724 9.04267 17.5953 10.2483C18.5084 10.5388 19.3366 11.0485 20.0074 11.7327C20.0272 10.2951 19.579 8.88989 18.7305 7.72912C17.882 6.56836 16.6791 5.71491 15.3032 5.29748C15.1603 5.25326 15.0305 5.17432 14.9255 5.06771C14.8205 4.9611 14.7435 4.83015 14.7015 4.68654C14.2604 3.26931 13.3591 2.03975 12.1403 1.19264C10.9216 0.345517 9.45497 -0.0707288 7.9729 0.00983339C6.49082 0.0903956 5.07799 0.66316 3.95821 1.6374C2.83843 2.61163 2.07573 3.93164 1.79091 5.38832C1.4979 6.86081 1.73403 8.38946 2.45769 9.7049C1.61459 10.1402 0.929017 10.8286 0.497285 11.6736C0.065552 12.5185 -0.0906531 13.4774 0.0506109 14.4157C0.220609 15.2919 0.62986 16.1039 1.23302 16.7618C1.83618 17.4197 2.60969 17.8977 3.46786 18.143C3.26443 17.3064 3.3007 16.4295 3.57252 15.6126C3.84433 14.7957 4.3407 14.0718 5.0048 13.5239V13.5239Z" fill="white"/>
</svg>
